<svg xmlns="http://www.w3.org/2000/svg" viewBox="0 0 64 64">
  <rect width="64" height="64" rx="14" fill="#07594d"/>
  <path d="M32 50C19 42 12 34.5 12 24.5 12 17.6 17.2 13 23.2 13c4 0 7.1 2 8.8 5 1.7-3 4.8-5 8.8-5C46.8 13 52 17.6 52 24.5 52 34.5 45 42 32 50Z" fill="#d7ad57"/>
  <path d="M32 44.5c-9.8-6.3-14.5-11.9-14.5-19.3 0-4 2.8-6.7 6.4-6.7 4.2 0 6.6 3.6 8.1 7.4 1.5-3.8 3.9-7.4 8.1-7.4 3.6 0 6.4 2.7 6.4 6.7 0 7.4-4.7 13-14.5 19.3Z" fill="#fffaf0"/>
  <path d="M32 28v12M26 34h12" stroke="#07594d" stroke-width="3.5" stroke-linecap="round"/>
</svg>
